<?xml version="1.0" encoding="utf-8" ?>
<svg baseProfile="full" height="897.3701492830253" version="1.1" width="897.3701492830253" xmlns="http://www.w3.org/2000/svg" xmlns:ev="http://www.w3.org/2001/xml-events" xmlns:xlink="http://www.w3.org/1999/xlink"><defs /><rect fill="#f7f9f4" height="897.3701492830253" width="897.3701492830253" x="0" y="0" /><polygon fill="#554c43" points="24.0,427.40410010086964 127.52484011349804,269.3958241242848 334.5428708275332,46.597769272169444 643.5504317239121,108.58857603369916 781.8902987736654,188.82256922084946 873.3701492830252,475.7845175450684 807.0480458198016,621.4402765297131 590.9429328077114,850.7723800108558 293.21593083643813,789.0151874393941 117.28885476239213,719.947497550095" stroke="none" /><polyline fill="none" points="807.0480458198016,621.4402765297131 873.3701492830252,475.7845175450684 781.8902987736654,188.82256922084946 643.5504317239121,108.58857603369916 650.6224628856922,388.89871325919216 807.0480458198016,621.4402765297131 590.9429328077114,850.7723800108558 293.21593083643813,789.0151874393941 311.26670051757344,497.10697594590306 650.6224628856922,388.89871325919216" stroke="#f7f9f4" stroke-linecap="round" stroke-linejoin="round" stroke-width="12" /><polyline fill="none" points="643.5504317239121,108.58857603369916 334.5428708275332,46.597769272169444 127.52484011349804,269.3958241242848 311.26670051757344,497.10697594590306" stroke="#f7f9f4" stroke-linecap="round" stroke-linejoin="round" stroke-width="12" /><polyline fill="none" points="127.52484011349804,269.3958241242848 24.0,427.40410010086964 117.28885476239213,719.947497550095 293.21593083643813,789.0151874393941" stroke="#f7f9f4" stroke-linecap="round" stroke-linejoin="round" stroke-width="12" /></svg>