<?xml version="1.0" encoding="utf-8" ?>
<svg baseProfile="full" height="888.8277593758166" version="1.1" width="888.8277593758166" xmlns="http://www.w3.org/2000/svg" xmlns:ev="http://www.w3.org/2001/xml-events" xmlns:xlink="http://www.w3.org/1999/xlink"><defs /><rect fill="#39303d" height="888.8277593758166" width="888.8277593758166" x="0" y="0" /><polygon fill="#e0d7e9" points="71.49734428554552,283.8300717190368 162.65811545192298,210.81233634132354 412.720669056059,66.43864960900532 521.5362345437056,24.0 799.6755409300906,184.58380796887172 817.3304150902711,300.0401929555901 817.3304150902711,588.7875664202265 799.6755409300906,704.243951406945 521.5362345437056,864.8277593758166 412.720669056059,822.3891097668113 162.65811545192298,678.0154230344931 71.49734428554552,604.9976876567799" stroke="none" /><polyline fill="none" points="464.23638726691,444.4138796879083 786.6341998181638,444.4138796879083 799.6755409300906,184.58380796887172 521.5362345437056,24.0 303.037480991283,165.2091868139221 464.23638726691,444.4138796879083 303.037480991283,723.6185725618946 71.49734428554552,604.9976876567799 71.49734428554552,283.8300717190368 303.037480991283,165.2091868139221" stroke="#39303d" stroke-linecap="round" stroke-linejoin="round" stroke-width="12" /><polyline fill="none" points="303.037480991283,723.6185725618946 521.5362345437056,864.8277593758166 799.6755409300906,704.243951406945 786.6341998181638,444.4138796879083" stroke="#39303d" stroke-linecap="round" stroke-linejoin="round" stroke-width="12" /><polyline fill="none" points="799.6755409300906,704.243951406945 817.3304150902711,588.7875664202265 817.3304150902711,300.0401929555901 799.6755409300906,184.58380796887172" stroke="#39303d" stroke-linecap="round" stroke-linejoin="round" stroke-width="12" /><polyline fill="none" points="521.5362345437056,24.0 412.720669056059,66.43864960900532 162.65811545192298,210.81233634132354 71.49734428554552,283.8300717190368" stroke="#39303d" stroke-linecap="round" stroke-linejoin="round" stroke-width="12" /><polyline fill="none" points="71.49734428554552,604.9976876567799 162.65811545192298,678.0154230344931 412.720669056059,822.3891097668113 521.5362345437056,864.8277593758166" stroke="#39303d" stroke-linecap="round" stroke-linejoin="round" stroke-width="12" /></svg>