<?xml version="1.0" encoding="utf-8" ?>
<svg baseProfile="full" height="761.1752311539133" version="1.1" width="720.9446759989155" xmlns="http://www.w3.org/2000/svg" xmlns:ev="http://www.w3.org/2001/xml-events" xmlns:xlink="http://www.w3.org/1999/xlink"><defs /><rect fill="white" height="761.1752311539133" width="720.9446759989155" x="0" y="0" /><polygon fill="black" points="-6.0,239.28785075249732 170.64447379512876,94.56950571145535 370.5150255265853,-6.0 596.7827141384905,108.69133194845278 726.9446759989155,269.50613742406586 713.0932796184845,527.1228388540345 558.6855763890221,705.2961124682968 338.13421359544327,767.1752311539133 96.33900152588967,675.5608020927631 9.890705162817767,488.73932659005743" stroke="none" /><polyline fill="none" points="331.58562206053534,75.59196056959127 571.3844763170423,263.4750206735349 726.9446759989155,269.50613742406586 596.7827141384905,108.69133194845278 370.5150255265853,-6.0 331.58562206053534,75.59196056959127 74.32583359527007,242.97207905561152 -6.0,239.28785075249732 170.64447379512876,94.56950571145535 370.5150255265853,-6.0" stroke="white" stroke-linecap="round" stroke-linejoin="round" stroke-width="12" /><polyline fill="none" points="74.32583359527007,242.97207905561152 145.25339521182718,538.5411039345414 456.74401956551765,556.2475226288906 571.3844763170423,263.4750206735349" stroke="white" stroke-linecap="round" stroke-linejoin="round" stroke-width="12" /><polyline fill="none" points="456.74401956551765,556.2475226288906 558.6855763890221,705.2961124682968 713.0932796184845,527.1228388540345 726.9446759989155,269.50613742406586" stroke="white" stroke-linecap="round" stroke-linejoin="round" stroke-width="12" /><polyline fill="none" points="-6.0,239.28785075249732 9.890705162817767,488.73932659005743 96.33900152588967,675.5608020927631 145.25339521182718,538.5411039345414" stroke="white" stroke-linecap="round" stroke-linejoin="round" stroke-width="12" /><polyline fill="none" points="96.33900152588967,675.5608020927631 338.13421359544327,767.1752311539133 558.6855763890221,705.2961124682968" stroke="white" stroke-linecap="round" stroke-linejoin="round" stroke-width="12" /></svg>