<?xml version="1.0" encoding="utf-8" ?>
<svg baseProfile="full" height="881.6570819157268" version="1.1" width="881.6570819157268" xmlns="http://www.w3.org/2000/svg" xmlns:ev="http://www.w3.org/2001/xml-events" xmlns:xlink="http://www.w3.org/1999/xlink"><defs /><rect fill="#0C1821" height="881.6570819157268" width="881.6570819157268" x="0" y="0" /><polygon fill="#5F9EA0" points="57.00264736948179,586.3618789564688 62.152910355344716,294.9776578816253 102.4353087162732,173.3771841199448 384.3984793195907,20.0 471.92054661390875,70.83429615910723 716.5856263736939,219.76708265633602 824.654434546245,287.9696796864632 821.0263625020277,605.7068967723594 710.8793199113231,683.2289081376584 461.0975546918378,825.6331778550048 371.7191114839925,861.6570819157268 93.3378638129883,697.3618935443301" stroke="none" /><polyline fill="none" points="606.4034558974961,717.0141365661791 821.0263625020277,605.7068967723594 824.654434546245,287.9696796864632 613.7175530093632,161.37516364824955 460.46047266593655,432.88816412917765 606.4034558974961,717.0141365661791 371.7191114839925,861.6570819157268 93.3378638129883,697.3618935443301 126.16208304874522,430.6101683746009 460.46047266593655,432.88816412917765" stroke="#0C1821" stroke-linecap="round" stroke-linejoin="round" stroke-width="10" /><polyline fill="none" points="371.7191114839925,861.6570819157268 461.0975546918378,825.6331778550048 710.8793199113231,683.2289081376584 821.0263625020277,605.7068967723594" stroke="#0C1821" stroke-linecap="round" stroke-linejoin="round" stroke-width="10" /><polyline fill="none" points="613.7175530093632,161.37516364824955 384.3984793195907,20.0 102.4353087162732,173.3771841199448 126.16208304874522,430.6101683746009" stroke="#0C1821" stroke-linecap="round" stroke-linejoin="round" stroke-width="10" /><polyline fill="none" points="824.654434546245,287.9696796864632 716.5856263736939,219.76708265633602 471.92054661390875,70.83429615910723 384.3984793195907,20.0" stroke="#0C1821" stroke-linecap="round" stroke-linejoin="round" stroke-width="10" /><polyline fill="none" points="102.4353087162732,173.3771841199448 62.152910355344716,294.9776578816253 57.00264736948179,586.3618789564688 93.3378638129883,697.3618935443301" stroke="#0C1821" stroke-linecap="round" stroke-linejoin="round" stroke-width="10" /></svg>