<?xml version="1.0" encoding="utf-8" ?>
<svg baseProfile="full" height="884.6080880043778" version="1.1" width="884.6080880043778" xmlns="http://www.w3.org/2000/svg" xmlns:ev="http://www.w3.org/2001/xml-events" xmlns:xlink="http://www.w3.org/1999/xlink"><defs /><rect fill="#FFF5E1" height="884.6080880043778" width="884.6080880043778" x="0" y="0" /><polygon fill="#FF6B6B" points="28.998169194830325,352.31353542543116 187.88644124431403,161.5887021191063 401.4632859641947,20.0 655.7092770715717,108.16199083125503 839.0266603403174,262.30289637187843 855.6099188095475,539.2714742902886 737.504528906541,762.213728752328 496.2510039471997,864.6080880043778 226.13384456664107,814.6300838420332 83.44895675165583,621.2848351911034" stroke="none" /><polyline fill="none" points="277.2206111606488,662.8852574715459 626.180042637604,626.2072194035172 697.1255902424457,285.09999080489536 397.1846658407751,117.64855639747339 140.65220330188527,346.8664542613774 277.2206111606488,662.8852574715459 226.13384456664107,814.6300838420332 83.44895675165583,621.2848351911034 28.998169194830325,352.31353542543116 140.65220330188527,346.8664542613774" stroke="#FFE66D" stroke-linecap="round" stroke-linejoin="round" stroke-width="10" /><polyline fill="none" points="226.13384456664107,814.6300838420332 496.2510039471997,864.6080880043778 737.504528906541,762.213728752328 626.180042637604,626.2072194035172" stroke="#FFE66D" stroke-linecap="round" stroke-linejoin="round" stroke-width="10" /><polyline fill="none" points="737.504528906541,762.213728752328 855.6099188095475,539.2714742902886 839.0266603403174,262.30289637187843 697.1255902424457,285.09999080489536" stroke="#FFE66D" stroke-linecap="round" stroke-linejoin="round" stroke-width="10" /><polyline fill="none" points="397.1846658407751,117.64855639747339 401.4632859641947,20.0 187.88644124431403,161.5887021191063 28.998169194830325,352.31353542543116" stroke="#FFE66D" stroke-linecap="round" stroke-linejoin="round" stroke-width="10" /><polyline fill="none" points="839.0266603403174,262.30289637187843 655.7092770715717,108.16199083125503 401.4632859641947,20.0" stroke="#FFE66D" stroke-linecap="round" stroke-linejoin="round" stroke-width="10" /></svg>