<?xml version="1.0" encoding="utf-8" ?>
<svg baseProfile="full" height="889.6570819157268" version="1.1" width="889.6570819157268" xmlns="http://www.w3.org/2000/svg" xmlns:ev="http://www.w3.org/2001/xml-events" xmlns:xlink="http://www.w3.org/1999/xlink"><defs /><rect fill="white" height="889.6570819157268" width="889.6570819157268" x="0" y="0" /><polygon fill="black" points="61.00264736948179,590.3618789564688 66.15291035534472,298.9776578816253 106.4353087162732,177.3771841199448 388.3984793195907,24.0 475.92054661390875,74.83429615910723 720.5856263736939,223.76708265633602 828.654434546245,291.9696796864632 825.0263625020277,609.7068967723594 714.8793199113231,687.2289081376584 465.0975546918378,829.6331778550048 375.7191114839925,865.6570819157268 97.3378638129883,701.3618935443301" stroke="none" /><polyline fill="none" points="610.4034558974961,721.0141365661791 825.0263625020277,609.7068967723594 828.654434546245,291.9696796864632 617.7175530093632,165.37516364824955 464.46047266593655,436.88816412917765 610.4034558974961,721.0141365661791 375.7191114839925,865.6570819157268 97.3378638129883,701.3618935443301 130.16208304874522,434.6101683746009 464.46047266593655,436.88816412917765" stroke="white" stroke-linecap="round" stroke-linejoin="round" stroke-width="12" /><polyline fill="none" points="375.7191114839925,865.6570819157268 465.0975546918378,829.6331778550048 714.8793199113231,687.2289081376584 825.0263625020277,609.7068967723594" stroke="white" stroke-linecap="round" stroke-linejoin="round" stroke-width="12" /><polyline fill="none" points="617.7175530093632,165.37516364824955 388.3984793195907,24.0 106.4353087162732,177.3771841199448 130.16208304874522,434.6101683746009" stroke="white" stroke-linecap="round" stroke-linejoin="round" stroke-width="12" /><polyline fill="none" points="828.654434546245,291.9696796864632 720.5856263736939,223.76708265633602 475.92054661390875,74.83429615910723 388.3984793195907,24.0" stroke="white" stroke-linecap="round" stroke-linejoin="round" stroke-width="12" /><polyline fill="none" points="106.4353087162732,177.3771841199448 66.15291035534472,298.9776578816253 61.00264736948179,590.3618789564688 97.3378638129883,701.3618935443301" stroke="white" stroke-linecap="round" stroke-linejoin="round" stroke-width="12" /></svg>