<?xml version="1.0" encoding="utf-8" ?>
<svg baseProfile="full" height="892.6080880043778" version="1.1" width="892.6080880043778" xmlns="http://www.w3.org/2000/svg" xmlns:ev="http://www.w3.org/2001/xml-events" xmlns:xlink="http://www.w3.org/1999/xlink"><defs /><rect fill="white" height="892.6080880043778" width="892.6080880043778" x="0" y="0" /><polygon fill="black" points="32.998169194830325,356.31353542543116 191.88644124431403,165.5887021191063 405.4632859641947,24.0 659.7092770715717,112.16199083125503 843.0266603403174,266.30289637187843 859.6099188095475,543.2714742902886 741.504528906541,766.213728752328 500.2510039471997,868.6080880043778 230.13384456664107,818.6300838420332 87.44895675165583,625.2848351911034" stroke="none" /><polyline fill="none" points="281.2206111606488,666.8852574715459 630.180042637604,630.2072194035172 701.1255902424457,289.09999080489536 401.1846658407751,121.64855639747339 144.65220330188527,350.8664542613774 281.2206111606488,666.8852574715459 230.13384456664107,818.6300838420332 87.44895675165583,625.2848351911034 32.998169194830325,356.31353542543116 144.65220330188527,350.8664542613774" stroke="white" stroke-linecap="round" stroke-linejoin="round" stroke-width="12" /><polyline fill="none" points="230.13384456664107,818.6300838420332 500.2510039471997,868.6080880043778 741.504528906541,766.213728752328 630.180042637604,630.2072194035172" stroke="white" stroke-linecap="round" stroke-linejoin="round" stroke-width="12" /><polyline fill="none" points="741.504528906541,766.213728752328 859.6099188095475,543.2714742902886 843.0266603403174,266.30289637187843 701.1255902424457,289.09999080489536" stroke="white" stroke-linecap="round" stroke-linejoin="round" stroke-width="12" /><polyline fill="none" points="401.1846658407751,121.64855639747339 405.4632859641947,24.0 191.88644124431403,165.5887021191063 32.998169194830325,356.31353542543116" stroke="white" stroke-linecap="round" stroke-linejoin="round" stroke-width="12" /><polyline fill="none" points="843.0266603403174,266.30289637187843 659.7092770715717,112.16199083125503 405.4632859641947,24.0" stroke="white" stroke-linecap="round" stroke-linejoin="round" stroke-width="12" /></svg>