<?xml version="1.0" encoding="utf-8" ?>
<svg baseProfile="full" height="892.0894911455011" version="1.1" width="892.0894911455011" xmlns="http://www.w3.org/2000/svg" xmlns:ev="http://www.w3.org/2001/xml-events" xmlns:xlink="http://www.w3.org/1999/xlink"><defs /><rect fill="black" height="892.0894911455011" width="892.0894911455011" x="0" y="0" /><polygon fill="white" points="48.3607799582079,294.695808130876 159.92319833259955,177.28242390709534 434.7001688699522,24.0 701.2209549002325,174.41007998099883 843.7287111872931,292.2618792575138 843.6277692979809,598.6787305926753 701.1845554955851,719.0746172841591 435.0580923371924,868.0894911455011 160.42471985792906,716.3509667699782 48.70366200529611,596.4982659621044" stroke="none" /><polyline fill="none" points="241.56966116608783,447.9068443065123 598.192423137265,447.8662871215038 701.2209549002325,174.41007998099883 434.7001688699522,24.0 159.92319833259955,177.28242390709534 241.56966116608783,447.9068443065123 160.42471985792906,716.3509667699782 48.70366200529611,596.4982659621044 48.3607799582079,294.695808130876 159.92319833259955,177.28242390709534" stroke="black" stroke-linecap="round" stroke-linejoin="round" stroke-width="12" /><polyline fill="none" points="160.42471985792906,716.3509667699782 435.0580923371924,868.0894911455011 701.1845554955851,719.0746172841591 598.192423137265,447.8662871215038" stroke="black" stroke-linecap="round" stroke-linejoin="round" stroke-width="12" /><polyline fill="none" points="701.1845554955851,719.0746172841591 843.6277692979809,598.6787305926753 843.7287111872931,292.2618792575138 701.2209549002325,174.41007998099883" stroke="black" stroke-linecap="round" stroke-linejoin="round" stroke-width="12" /></svg>