<?xml version="1.0" encoding="utf-8" ?>
<svg baseProfile="full" height="432.4279082273647" version="1.1" width="432.4279082273647" xmlns="http://www.w3.org/2000/svg" xmlns:ev="http://www.w3.org/2001/xml-events" xmlns:xlink="http://www.w3.org/1999/xlink"><defs /><rect fill="white" height="432.4279082273647" width="432.4279082273647" x="0" y="0" /><polygon fill="black" points="34.0014508625552,145.95876378196795 121.83026744225617,74.00383244871244 221.20724567744958,24.0 333.7090573336484,81.02529912520839 398.4264573648094,160.9834984957646 391.539450225936,289.0722494860842 314.76690504480655,377.6611955847957 205.10728890721703,408.4279082273647 84.88508849274615,362.8765999232174 41.902415999375194,269.9877098687995" stroke="none" /><polyline fill="none" points="201.85128529488838,64.56806978041135 321.080883221308,157.984786815333 398.4264573648094,160.9834984957646 333.7090573336484,81.02529912520839 221.20724567744958,24.0 201.85128529488838,64.56806978041135 73.93999382333197,147.79058679301352 34.0014508625552,145.95876378196795 121.83026744225617,74.00383244871244 221.20724567744958,24.0" stroke="white" stroke-linecap="round" stroke-linejoin="round" stroke-width="12" /><polyline fill="none" points="73.93999382333197,147.79058679301352 109.20565295111737,294.74948743114066 264.0808795850752,303.55323750821935 321.080883221308,157.984786815333" stroke="white" stroke-linecap="round" stroke-linejoin="round" stroke-width="12" /><polyline fill="none" points="264.0808795850752,303.55323750821935 314.76690504480655,377.6611955847957 391.539450225936,289.0722494860842 398.4264573648094,160.9834984957646" stroke="white" stroke-linecap="round" stroke-linejoin="round" stroke-width="12" /><polyline fill="none" points="34.0014508625552,145.95876378196795 41.902415999375194,269.9877098687995 84.88508849274615,362.8765999232174 109.20565295111737,294.74948743114066" stroke="white" stroke-linecap="round" stroke-linejoin="round" stroke-width="12" /><polyline fill="none" points="84.88508849274615,362.8765999232174 205.10728890721703,408.4279082273647 314.76690504480655,377.6611955847957" stroke="white" stroke-linecap="round" stroke-linejoin="round" stroke-width="12" /></svg>