<?xml version="1.0" encoding="utf-8" ?>
<svg baseProfile="full" height="1432" version="1.1" width="2552" xmlns="http://www.w3.org/2000/svg" xmlns:ev="http://www.w3.org/2001/xml-events" xmlns:xlink="http://www.w3.org/1999/xlink"><defs /><rect fill="white" height="1432" width="2552" x="0" y="0" /><polygon fill="black" points="959.9062529877226,569.0310434370493 1136.5507267828514,424.31269839600736 1336.421278514308,323.743192684552 1562.6889671262131,438.4345246330048 1692.850928986638,599.2493301086179 1678.9995326062071,856.8660315385865 1524.5918293767447,1035.0393051528488 1304.0404665831659,1096.9184238384653 1062.2452545136123,1005.3039947773151 975.7969581505404,818.4825192746094" stroke="none" /><polyline fill="none" points="1297.491875048258,405.3351532541433 1537.290729304765,593.2182133580869 1692.850928986638,599.2493301086179 1562.6889671262131,438.4345246330048 1336.421278514308,323.743192684552 1297.491875048258,405.3351532541433 1040.2320865829927,572.7152717401635 959.9062529877226,569.0310434370493 1136.5507267828514,424.31269839600736 1336.421278514308,323.743192684552" stroke="white" stroke-linecap="round" stroke-linejoin="round" stroke-width="12" /><polyline fill="none" points="1040.2320865829927,572.7152717401635 1111.1596481995498,868.2842966190934 1422.6502725532403,885.9907153134426 1537.290729304765,593.2182133580869" stroke="white" stroke-linecap="round" stroke-linejoin="round" stroke-width="12" /><polyline fill="none" points="1422.6502725532403,885.9907153134426 1524.5918293767447,1035.0393051528488 1678.9995326062071,856.8660315385865 1692.850928986638,599.2493301086179" stroke="white" stroke-linecap="round" stroke-linejoin="round" stroke-width="12" /><polyline fill="none" points="959.9062529877226,569.0310434370493 975.7969581505404,818.4825192746094 1062.2452545136123,1005.3039947773151 1111.1596481995498,868.2842966190934" stroke="white" stroke-linecap="round" stroke-linejoin="round" stroke-width="12" /><polyline fill="none" points="1062.2452545136123,1005.3039947773151 1304.0404665831659,1096.9184238384653 1524.5918293767447,1035.0393051528488" stroke="white" stroke-linecap="round" stroke-linejoin="round" stroke-width="12" /></svg>