<?xml version="1.0" encoding="utf-8" ?>
<svg baseProfile="full" height="821.1752311539133" version="1.1" width="821.1752311539133" xmlns="http://www.w3.org/2000/svg" xmlns:ev="http://www.w3.org/2001/xml-events" xmlns:xlink="http://www.w3.org/1999/xlink"><defs /><rect fill="white" height="821.1752311539133" width="821.1752311539133" x="0" y="0" /><polygon fill="black" points="44.11527757749889,269.2878507524973 220.75975137262765,124.56950571145535 420.6303031040842,24.0 646.8979917159894,138.69133194845278 777.0599535764144,299.50613742406586 763.2085571959834,557.1228388540345 608.800853966521,735.2961124682968 388.24949117294216,797.1752311539133 146.45427910338856,705.5608020927631 60.005982740316654,518.7393265900574" stroke="none" /><polyline fill="none" points="381.70089963803423,105.59196056959127 621.4997538945412,293.4750206735349 777.0599535764144,299.50613742406586 646.8979917159894,138.69133194845278 420.6303031040842,24.0 381.70089963803423,105.59196056959127 124.44111117276896,272.9720790556115 44.11527757749889,269.2878507524973 220.75975137262765,124.56950571145535 420.6303031040842,24.0" stroke="white" stroke-linecap="round" stroke-linejoin="round" stroke-width="12" /><polyline fill="none" points="124.44111117276896,272.9720790556115 195.36867278932607,568.5411039345414 506.85929714301653,586.2475226288906 621.4997538945412,293.4750206735349" stroke="white" stroke-linecap="round" stroke-linejoin="round" stroke-width="12" /><polyline fill="none" points="506.85929714301653,586.2475226288906 608.800853966521,735.2961124682968 763.2085571959834,557.1228388540345 777.0599535764144,299.50613742406586" stroke="white" stroke-linecap="round" stroke-linejoin="round" stroke-width="12" /><polyline fill="none" points="44.11527757749889,269.2878507524973 60.005982740316654,518.7393265900574 146.45427910338856,705.5608020927631 195.36867278932607,568.5411039345414" stroke="white" stroke-linecap="round" stroke-linejoin="round" stroke-width="12" /><polyline fill="none" points="146.45427910338856,705.5608020927631 388.24949117294216,797.1752311539133 608.800853966521,735.2961124682968" stroke="white" stroke-linecap="round" stroke-linejoin="round" stroke-width="12" /></svg>