<?xml version="1.0" encoding="utf-8" ?>
<svg baseProfile="full" height="898.0084375971276" version="1.1" width="898.0084375971276" xmlns="http://www.w3.org/2000/svg" xmlns:ev="http://www.w3.org/2001/xml-events" xmlns:xlink="http://www.w3.org/1999/xlink"><defs /><rect fill="#f8f4f9" height="898.0084375971276" width="898.0084375971276" x="0" y="0" /><polygon fill="#4f3d57" points="24.0,429.7791984981851 156.0649524270823,159.50132285711277 322.7885022107504,78.30627406684107 626.2166420746845,69.35820062987705 809.3321422836469,301.96776625065377 874.0084375971275,491.30030519986417 749.0795357398371,768.6238768342348 584.8020943158746,793.2436450330904 269.49123096499954,828.6502369672505 89.61181404922695,561.0544921062243" stroke="none" /><polyline fill="none" points="269.49123096499954,828.6502369672505 584.8020943158746,793.2436450330904 616.0632536365523,484.14972941266717 292.57063971212744,334.08662397481885 89.61181404922695,561.0544921062243 269.49123096499954,828.6502369672505" stroke="#f8f4f9" stroke-linecap="round" stroke-linejoin="round" stroke-width="12" /><polyline fill="none" points="584.8020943158746,793.2436450330904 749.0795357398371,768.6238768342348 874.0084375971275,491.30030519986417 809.3321422836469,301.96776625065377 616.0632536365523,484.14972941266717" stroke="#f8f4f9" stroke-linecap="round" stroke-linejoin="round" stroke-width="12" /><polyline fill="none" points="292.57063971212744,334.08662397481885 322.7885022107504,78.30627406684107 156.0649524270823,159.50132285711277 24.0,429.7791984981851 89.61181404922695,561.0544921062243" stroke="#f8f4f9" stroke-linecap="round" stroke-linejoin="round" stroke-width="12" /><polyline fill="none" points="809.3321422836469,301.96776625065377 626.2166420746845,69.35820062987705 322.7885022107504,78.30627406684107" stroke="#f8f4f9" stroke-linecap="round" stroke-linejoin="round" stroke-width="12" /></svg>