<?xml version="1.0" encoding="utf-8" ?>
<svg baseProfile="full" height="873.6570819157268" version="1.1" width="873.6570819157268" xmlns="http://www.w3.org/2000/svg" xmlns:ev="http://www.w3.org/2001/xml-events" xmlns:xlink="http://www.w3.org/1999/xlink"><defs /><rect fill="#0A2239" height="873.6570819157268" width="873.6570819157268" x="0" y="0" /><polygon fill="#1E5F8E" points="53.00264736948179,582.3618789564688 58.152910355344716,290.9776578816253 98.4353087162732,169.3771841199448 380.3984793195907,16.0 467.92054661390875,66.83429615910723 712.5856263736939,215.76708265633602 820.654434546245,283.9696796864632 817.0263625020277,601.7068967723594 706.8793199113231,679.2289081376584 457.0975546918378,821.6331778550048 367.7191114839925,857.6570819157268 89.3378638129883,693.3618935443301" stroke="none" /><polyline fill="none" points="602.4034558974961,713.0141365661791 817.0263625020277,601.7068967723594 820.654434546245,283.9696796864632 609.7175530093632,157.37516364824955 456.46047266593655,428.88816412917765 602.4034558974961,713.0141365661791 367.7191114839925,857.6570819157268 89.3378638129883,693.3618935443301 122.16208304874522,426.6101683746009 456.46047266593655,428.88816412917765" stroke="#5EB3FD" stroke-linecap="round" stroke-linejoin="round" stroke-width="8" /><polyline fill="none" points="367.7191114839925,857.6570819157268 457.0975546918378,821.6331778550048 706.8793199113231,679.2289081376584 817.0263625020277,601.7068967723594" stroke="#5EB3FD" stroke-linecap="round" stroke-linejoin="round" stroke-width="8" /><polyline fill="none" points="609.7175530093632,157.37516364824955 380.3984793195907,16.0 98.4353087162732,169.3771841199448 122.16208304874522,426.6101683746009" stroke="#5EB3FD" stroke-linecap="round" stroke-linejoin="round" stroke-width="8" /><polyline fill="none" points="820.654434546245,283.9696796864632 712.5856263736939,215.76708265633602 467.92054661390875,66.83429615910723 380.3984793195907,16.0" stroke="#5EB3FD" stroke-linecap="round" stroke-linejoin="round" stroke-width="8" /><polyline fill="none" points="98.4353087162732,169.3771841199448 58.152910355344716,290.9776578816253 53.00264736948179,582.3618789564688 89.3378638129883,693.3618935443301" stroke="#5EB3FD" stroke-linecap="round" stroke-linejoin="round" stroke-width="8" /></svg>