<?xml version="1.0" encoding="utf-8" ?>
<svg baseProfile="full" height="876.6080880043778" version="1.1" width="876.6080880043778" xmlns="http://www.w3.org/2000/svg" xmlns:ev="http://www.w3.org/2001/xml-events" xmlns:xlink="http://www.w3.org/1999/xlink"><defs /><rect fill="#0A2239" height="876.6080880043778" width="876.6080880043778" x="0" y="0" /><polygon fill="#1E5F8E" points="24.998169194830325,348.31353542543116 183.88644124431403,157.5887021191063 397.4632859641947,16.0 651.7092770715717,104.16199083125503 835.0266603403174,258.30289637187843 851.6099188095475,535.2714742902886 733.504528906541,758.213728752328 492.2510039471997,860.6080880043778 222.13384456664107,810.6300838420332 79.44895675165583,617.2848351911034" stroke="none" /><polyline fill="none" points="273.2206111606488,658.8852574715459 622.180042637604,622.2072194035172 693.1255902424457,281.09999080489536 393.1846658407751,113.64855639747339 136.65220330188527,342.8664542613774 273.2206111606488,658.8852574715459 222.13384456664107,810.6300838420332 79.44895675165583,617.2848351911034 24.998169194830325,348.31353542543116 136.65220330188527,342.8664542613774" stroke="#5EB3FD" stroke-linecap="round" stroke-linejoin="round" stroke-width="8" /><polyline fill="none" points="222.13384456664107,810.6300838420332 492.2510039471997,860.6080880043778 733.504528906541,758.213728752328 622.180042637604,622.2072194035172" stroke="#5EB3FD" stroke-linecap="round" stroke-linejoin="round" stroke-width="8" /><polyline fill="none" points="733.504528906541,758.213728752328 851.6099188095475,535.2714742902886 835.0266603403174,258.30289637187843 693.1255902424457,281.09999080489536" stroke="#5EB3FD" stroke-linecap="round" stroke-linejoin="round" stroke-width="8" /><polyline fill="none" points="393.1846658407751,113.64855639747339 397.4632859641947,16.0 183.88644124431403,157.5887021191063 24.998169194830325,348.31353542543116" stroke="#5EB3FD" stroke-linecap="round" stroke-linejoin="round" stroke-width="8" /><polyline fill="none" points="835.0266603403174,258.30289637187843 651.7092770715717,104.16199083125503 397.4632859641947,16.0" stroke="#5EB3FD" stroke-linecap="round" stroke-linejoin="round" stroke-width="8" /></svg>